# xmcd
#
# Track frame offsets:
#	150
#	25090
#	47390
#	62770
#	86722
#	110427
#	123912
#	138302
#	155135
#	180315
#	205512
#	221327
#	243987
#	256840
#	274652
#	297887
#
# Disc length: 4124 seconds
#
# Revision: 1
# Processed by: cddbd v1.5.2PL0 Copyright (c) Steve Scherf et al.
# Submitted via: EasyCDDAExtractor 16.0.8.2
#
DISCID=d8101a10
DTITLE=Συλλογικός δίσκος - Ριζίτικα τραγούδια 2
DYEAR=1900
DGENRE=Κρητική
TTITLE0=Κουνάλης Δημήτρης - Ο πραματευτής
TTITLE1=Καρπουζάκης Μανώλης - Αετόπουλα απ' τον ομαλό
TTITLE2=Καραγιώργης Κώστας - Χιόνι σκεπάζει τση κορφές
TTITLE3=Συλλογικός δίσκος - Δακρύζω με παράπονο
TTITLE4=Λατζουράκης Φίλιππας - Από βορά ξεκίνησα
TTITLE5=Αλεξάκης Μανώλης - Εμίσεψα
TTITLE6=Καρπουζάκης Μανώλης - Στο ακρωτήρι
TTITLE7=Αλεξάκης Μανώλης - Κόσμε χρυσέ
TTITLE8=Κονταρός Μανώλης - Απόψε κρύος έπιασε
TTITLE9=Σταυρακάκης Βασίλης - Εζευγαρώσαν τα πουλιά
TTITLE10=Συλλογικός δίσκος - Πανώρια κόρη
TTITLE11=Κονταρός Μανώλης - Θωρώ τον κόσμο
TTITLE12=Βαφάκης Α.-Τσαγκαράκης Μ. - Δυό γίγαντες
TTITLE13=Ζαμπετουλάκης Ε. - Ο Διγενής ψυχομαχεί
TTITLE14=Δασκαλομαρκάκης Δ. - Ο Κωνσταντής
TTITLE15=Ζαμπετουλάκης E. - Ήντά 'χετε γυρού γυρού
EXTD=
EXTT0=
EXTT1=
EXTT2=
EXTT3=
EXTT4=
EXTT5=
EXTT6=
EXTT7=
EXTT8=
EXTT9=
EXTT10=
EXTT11=
EXTT12=
EXTT13=
EXTT14=
EXTT15=
PLAYORDER=
